<?xml version="1.0" encoding="utf-8"?>
<!-- Generator: Adobe Illustrator 17.0.0, SVG Export Plug-In . SVG Version: 6.00 Build 0)  -->
<!DOCTYPE svg PUBLIC "-//W3C//DTD SVG 1.1//EN" "http://www.w3.org/Graphics/SVG/1.1/DTD/svg11.dtd">
<svg version="1.1" id="Layer_1" xmlns="http://www.w3.org/2000/svg" xmlns:xlink="http://www.w3.org/1999/xlink" x="0px" y="0px"
	 width="306.465px" height="49.613px" viewBox="0 0 306.465 49.613" enable-background="new 0 0 306.465 49.613"
	 xml:space="preserve">
<g>
	<path fill="#F7F7F7" d="M36.659,13.809c-3.843-3.773-7.19-5.338-11.604-5.338c-8.683,0-15.517,7.188-15.517,16.299
		c0,9.611,6.618,16.371,15.944,16.371c4.199,0,7.476-1.492,11.176-5.195v10.891c-4.2,1.994-7.616,2.777-11.604,2.777
		C10.963,49.613,0,38.795,0,24.842C0,11.033,11.247,0,25.269,0c3.987,0,7.335,0.855,11.391,2.918V13.809"/>
	<path fill="#F7F7F7" d="M71.829,17.725v30.82h-8.612v-3.986c-2.777,3.416-5.838,4.982-10.037,4.982
		c-8.756,0-15.233-7.047-15.233-16.512c0-9.258,6.551-16.303,15.09-16.303c4.129,0,7.19,1.494,10.181,4.984v-3.986H71.829
		 M46.844,33.098c0,4.771,3.916,8.688,8.684,8.688c4.771,0,8.613-3.848,8.613-8.615c0-4.842-3.843-8.684-8.613-8.684
		C50.688,24.486,46.844,28.328,46.844,33.098z"/>
	<path fill="#F7F7F7" d="M83.07,17.725v4.697c2.206-3.916,5.053-5.695,8.969-5.695c1.352,0,2.207,0.144,3.773,0.781l-1.212,8.045
		c-1.496-0.783-2.49-1.066-4.058-1.066c-5.053,0-7.473,2.99-7.473,9.252v14.807h-8.614v-30.82H83.07"/>
	<path fill="#F7F7F7" d="M103.142,34.521c0.213,5.34,2.847,8.258,7.617,8.258c3.201,0,5.337-1.213,7.26-4.129l7.972,1.283
		c-2.563,6.264-7.83,9.607-15.019,9.607c-10.109,0-16.655-6.406-16.655-16.371c0-9.963,6.333-16.443,16.158-16.443
		c9.751,0,15.8,6.334,15.8,16.516v1.279H103.142 M118.019,29.039c-0.926-3.983-3.488-6.121-7.26-6.121
		c-3.916,0-6.479,2.207-7.262,6.121H118.019z"/>
	<path fill="#F7F7F7" d="M143.678,24.912c-1.851-1.424-3.416-2.064-5.124-2.064c-1.922,0-3.346,1.141-3.346,2.566
		c0,1.492,0.854,2.063,4.911,3.484c7.262,2.565,9.395,4.77,9.395,9.609c0,6.479-5.337,11.033-12.954,11.033
		c-4.484,0-8.685-1.851-11.673-5.123l4.482-5.268c2.492,2.488,4.771,3.629,7.262,3.629c2.277,0,3.984-1.424,3.984-3.418
		c0-1.779-0.853-2.416-4.769-3.842c-3.841-1.426-4.554-1.709-5.905-2.705c-2.066-1.424-3.063-3.559-3.063-6.336
		c0-5.766,4.556-9.893,10.82-9.893c4.059,0,7.188,0.996,10.25,3.274L143.678,24.912"/>
	<polyline fill="#F7F7F7" points="160.975,48.545 152.361,48.545 152.361,25.197 148.946,25.197 148.946,17.725 152.361,17.725 
		152.361,7.191 160.975,7.191 160.975,17.725 167.094,17.725 167.094,25.197 160.975,25.197 160.975,48.545 	"/>
	<path fill="#F7F7F7" d="M177.342,17.725v4.697c2.207-3.916,5.053-5.695,8.969-5.695c1.353,0,2.207,0.144,3.773,0.781l-1.21,8.045
		c-1.494-0.783-2.491-1.066-4.059-1.066c-5.053,0-7.473,2.99-7.473,9.252v14.807h-8.613v-30.82H177.342"/>
	<path fill="#F7F7F7" d="M197.412,34.521c0.213,5.34,2.848,8.258,7.618,8.258c3.202,0,5.338-1.213,7.26-4.129l7.973,1.283
		c-2.564,6.264-7.83,9.607-15.018,9.607c-10.107,0-16.657-6.406-16.657-16.371c0-9.963,6.334-16.443,16.157-16.443
		c9.753,0,15.803,6.334,15.803,16.516v1.279H197.412 M212.29,29.039c-0.926-3.983-3.489-6.121-7.26-6.121
		c-3.916,0-6.477,2.207-7.26,6.121H212.29z"/>
	<path fill="#F7F7F7" d="M255.744,17.725v30.82h-8.61v-3.986c-2.778,3.416-5.836,4.982-10.038,4.982
		c-8.755,0-15.23-7.047-15.23-16.512c0-9.258,6.549-16.303,15.088-16.303c4.131,0,7.188,1.494,10.181,4.984v-3.986H255.744
		 M230.761,33.098c0,4.771,3.916,8.688,8.685,8.688c4.769,0,8.611-3.848,8.611-8.615c0-4.842-3.843-8.684-8.611-8.684
		C234.607,24.486,230.761,28.328,230.761,33.098z"/>
	<path fill="#F7F7F7" d="M267.032,17.725v3.561c2.917-3.346,5.55-4.559,9.68-4.559c3.986,0,6.974,1.779,9.324,5.625
		c2.42-3.774,5.766-5.625,10.105-5.625c6.763,0,10.323,4.129,10.323,11.889v19.93h-8.613V31.676c0-5.41-1.493-7.617-5.195-7.617
		c-3.916,0-5.908,2.918-5.908,8.684v15.803h-8.613V32.172c0-2.633-0.143-3.984-0.642-5.123c-0.711-1.779-2.633-2.99-4.627-2.99
		c-1.92,0-3.982,1.139-4.84,2.777c-0.71,1.279-0.994,2.918-0.994,5.906v15.803h-8.614v-30.82H267.032"/>
</g>
</svg>
